<?xml version="1.0" encoding="UTF-8" standalone="no"?>
<!-- Created with Inkscape (http://www.inkscape.org/) -->

<svg
   xmlns:dc="http://purl.org/dc/elements/1.1/"
   xmlns:cc="http://creativecommons.org/ns#"
   xmlns:svg="http://www.w3.org/2000/svg"
   xmlns="http://www.w3.org/2000/svg"
   xmlns:xlink="http://www.w3.org/1999/xlink"
   xmlns:sodipodi="http://sodipodi.sourceforge.net/DTD/sodipodi-0.dtd"
   width="800"
   height="400"
   id="svg2"
   version="1.1"
   sodipodi:docname="ajax.svg">
  <defs
     id="defs4">
    <linearGradient
       id="linearGradient2999">
      <stop
         style="stop-color:#ff0000;stop-opacity:1"
         offset="0"
         id="stop3001" />
      <stop
         id="stop3007"
         offset="0.11724576"
         style="stop-color:#ff6600;stop-opacity:1" />
      <stop
         style="stop-color:#ffff00;stop-opacity:1"
         offset="0.31498235"
         id="stop3009" />
      <stop
         id="stop3011"
         offset="0.51171607"
         style="stop-color:#008000;stop-opacity:1" />
      <stop
         style="stop-color:#0000ff;stop-opacity:1"
         offset="0.6726113"
         id="stop3013" />
      <stop
         id="stop3015"
         offset="0.83754772"
         style="stop-color:#000080;stop-opacity:1" />
      <stop
         style="stop-color:#ff00ff;stop-opacity:1"
         offset="1"
         id="stop3003" />
    </linearGradient>
    <linearGradient
       xlink:href="#linearGradient2999"
       id="linearGradient3005"
       x1="41.416252"
       y1="908.92053"
       x2="763.67535"
       y2="742.24536"
       gradientUnits="userSpaceOnUse" />
  </defs>
 <g  id="layer1"
     transform="translate(0,-652.36218)">
    <g
       style="fill:url(#linearGradient3005);fill-opacity:1;"
       id="text2985">
      <path
         d="m 212.36713,934.13733 0,-7.5 c -13.19998,0 -16.50001,-4.20004 -32.7,-41.7 l -66.9,-157.8 -8.4,0 -66.599997,164.4 c -11.399989,28.19997 -15.000015,32.4 -29.4000001,35.1 l 0,7.5 60.9000001,0 0,-7.5 c -17.699982,-1.2 -24.6,-4.50001 -24.6,-12.3 0,-3.9 2.100006,-10.80002 8.7,-27.3 l 4.5,-12 67.499997,0 c 10.19999,23.69998 13.8,34.20001 13.8,40.8 0,6.59999 -3.90001,9.3 -14.4,9.9 l -9.6,0.9 0,7.5 97.2,0 m -91.5,-70.8 -58.499997,0 28.2,-72.9 30.299997,72.9"
id="path3037" />
      <path
         d="m 366.16401,738.83733 0,-7.5 -105.6,0 0,7.5 c 24.29997,0.9 30.3,5.10002 30.3,21.3 l 0,166.8 c 0,18.59998 -5.70002,26.1 -19.2,26.1 -8.09999,0 -13.5,-3.90001 -13.5,-9.6 0,-2.4 0.9,-4.2 3.6,-7.8 3.59999,-4.5 4.5,-6.90001 4.5,-11.4 0,-11.99999 -10.20001,-22.5 -21.9,-22.5 -11.09999,0 -21,10.20001 -21,21.6 0,12.29999 8.40001,25.80001 20.1,32.7 7.79999,4.19999 19.80001,6.9 31.8,6.9 41.99996,0 64.2,-22.80004 64.2,-65.7 l 0,-130.8 c 0,-21.59998 4.20002,-26.1 26.7,-27.6"
id="path3039" />
      <path
         d="m 570.37495,934.13733 0,-7.5 c -13.19999,0 -16.50002,-4.20004 -32.7,-41.7 l -66.9,-157.8 -8.4,0 -66.6,164.4 c -11.39999,28.19997 -15.00002,32.4 -29.4,35.1 l 0,7.5 60.9,0 0,-7.5 c -17.69999,-1.2 -24.6,-4.50001 -24.6,-12.3 0,-3.9 2.1,-10.80002 8.7,-27.3 l 4.5,-12 67.5,0 c 10.19999,23.69998 13.8,34.20001 13.8,40.8 0,6.59999 -3.90002,9.3 -14.4,9.9 l -9.6,0.9 0,7.5 97.2,0 m -91.5,-70.8 -58.5,0 28.2,-72.9 30.3,72.9"
id="path3041" />
      <path
         d="m 790.17182,934.13733 0,-7.5 c -10.19999,-0.3 -14.70001,-4.20002 -29.1,-25.8 l -54.6,-84.9 24,-33.3 c 26.39997,-35.99996 34.20002,-41.7 56.4,-43.8 l 0,-7.5 -75,0 0,7.5 c 2.7,0.3 5.1,0.3 6,0.6 11.99999,0.6 15.6,3.30001 15.6,10.5 0,6.29999 -3.30001,12.60002 -17.4,31.8 l -16.8,23.1 -29.1,-45 c -3.9,-5.99999 -4.5,-7.5 -4.5,-11.1 0,-6.29999 3.60001,-8.7 14.4,-9.3 1.5,0 5.1,-0.3 9.3,-0.6 l 0,-7.5 -103.8,0 0,7.5 c 10.79999,0.9 14.70001,3.90001 24,17.4 l 59.4,87.3 -52.5,66.3 c -8.99999,11.09999 -16.20001,15 -31.2,16.8 l 0,7.5 75,0 0,-7.5 c -18.29998,-1.8 -24.3,-4.80001 -24.3,-12.3 0,-6.59999 6.00002,-16.20003 28.2,-46.2 l 11.4,-15.3 30.3,48.6 c 3.6,5.69999 6.3,12.9 6.3,16.2 0,5.09999 -5.10001,7.8 -15.6,8.4 -1.2,0 -4.5,0.3 -8.4,0.6 l 0,7.5 102,0"
id="path3043" />
    </g>
</g>
</svg>
